<svg version="1" xmlns="http://www.w3.org/2000/svg" width="889.333" height="889.333" viewBox="0 0 667.000000 667.000000"><path d="M307 110.6c-15.9 2.3-17.5 2.5-21 3.4-1.9.5-4.6 1.1-6 1.4-6 1.2-18.3 5.1-28.5 9.2-29.4 11.6-53.3 27.4-77.2 51.3-6.2 6.1-17.6 19.6-20.9 24.6-1.6 2.5-1.9 2.5-14.5 2.5-11.6 0-12.9.2-13 1.7 0 1-.1 11.9-.1 24.3-.1 22.1-.1 22.5-3.1 31-2.7 8-5.1 16.3-6.2 22-.3 1.4-.8 3.6-1 5-.3 1.4-.8 3.7-1 5.2-.3 1.6-.7 4-1 5.5-2 10.7-2.7 46.3-1.1 57.8.4 3.3 1 7.6 1.2 9.5.1 1.9.5 4.4.8 5.5.2 1.1.9 4.2 1.6 7 2.6 11.5 3.4 14.4 6.1 22.5 3.6 10.8 8.6 22.7 12.9 31 1.9 3.6 3.4 6.7 3.5 7 0 .3.4 1.1.9 1.9.7 1 .2 1.2-2 .7-3.5-.7-7.3-1.2-13.9-2-19.3-2.3-30.4-2.9-54.2-3-22.5-.1-23.2 0-26.2 2.2-1.7 1.2-3.2 2.2-3.5 2.2-.4 0-22 12.5-32.9 19.1C4 460.7 1.4 462 .9 462c-1.2 0-1.3-.6 1.7 9.1 1.4 4.6 2.7 8.8 2.8 9.4.1.5 1 3.6 1.9 6.7 1 3.2 1.7 6 1.7 6.3 0 .3.7 1.9 1.5 3.5.9 1.7 1.3 3 1.1 3-.3 0 .2 1.9 1 4.2.8 2.3 1.1 5 .7 6.2-.4 1.2-.8 2.3-.8 2.6-.1.3-.5 1.8-1 3.5-.4 1.6-1.4 4-2.1 5.3-.8 1.2-1.2 2.2-.9 2.2.2 0 0 1.2-.5 2.6-.7 1.8-.7 3.9.1 6.7 1.4 5 1.7 6.7 1.8 8.7.2 3.3 1.5 4 5.2 2.9 3.5-1 18.4-4.6 22.9-5.4 1.4-.3 3.6-.8 5-1.1 1.4-.4 3.4-.8 4.5-1 1.1-.1 3.4-.5 5-.9 1.7-.3 4.1-.8 5.5-1 1.4-.2 3.9-.6 5.5-.9 7.5-1.3 9.4-1.6 25-3.5 20.4-2.6 35-3.4 61.5-3.4 19.3 0 37.1.7 44 1.8 1.4.2 4.8.7 7.5 1 4.8.5 24.5 3.9 29.3 5 1.2.3 3.2.7 4.5.9 12.5 2.5 37 10.7 47 15.7 2 1 3.7 1.6 3.7 1.3 0-.4.7-.1 1.5.6 1.2 1 3.3 6.4 3.9 10 .1.3 1.2 2.6 2.4 5.2 6.4 12.9 22 20.3 42.1 19.7 8.7-.2 17.3-2 22.2-4.6 8.2-4.3 17.9-17.8 18.1-25.2.1-1.7.6-3.5 1.2-4 2.1-1.7 35.5-13 40.1-13.6 1.1-.1 2.7-.5 3.5-.8 1.3-.5 5.2-1.5 8.5-2.2 3.4-.8 23.3-4.8 25.4-5.1 1.4-.2 3.6-.6 4.8-.9 1.2-.3 4.4-.8 7-1 2.7-.3 6.2-.7 7.8-1 3.3-.4 13.7-1.4 23-2.1 15.2-1.2 53.6-.6 69 1.1 2.2.2 6.5.7 9.5 1 3 .3 6.9.8 8.5 1.1 1.7.3 4.4.7 6 .9 3.5.3 18.9 3.1 25.5 4.5 2.5.6 5.6 1.3 7 1.6 1.4.2 3.3.7 4.2 1 .9.3 2.5.6 3.5.8 2.3.5 18.3 5.2 20.4 6.1 1.8.7 2.4-.6 5.9-11.7 1.5-4.7 1.9-7.2 1.2-8.5-.6-1-2.2-5.4-3.6-9.8l-2.6-7.9 4.6-15.1c2.5-8.2 5.7-18.4 7-22.5 2.9-8.9 2.9-9.6.7-10.3-2.4-.8-7.7-4-8.1-5-.2-.4-.8-.7-1.3-.7s-6.1-3.2-12.5-7c-6.4-3.9-11.9-7-12.1-7-.2 0-2.3-1.2-4.6-2.8l-4.2-2.8-22 .2c-20.3.1-38.1.8-44.4 1.8-2.6.4-11 1.4-18.6 2.2-5.3.5-6.8.8-8.2 1.7-1.7 1.1-1.6-.1.5-4 4.3-8.2 9.2-18.6 9.2-19.7 0-.7.4-1.6.9-2.2.8-.8 4.9-11.2 5.4-13.9.2-.6.5-1.5.8-2 .4-.6 1-2.4 1.4-4 .4-1.7.9-3.9 1.2-5 .3-1.1.9-4.5 1.4-7.5.5-3 1.1-6.4 1.3-7.5 1.1-5.4 2-10.3 3.1-17 2.2-13.9 2.3-46.3.1-58.5-.3-1.4-.7-4.5-1-7-.9-7.2-5.4-24.7-8.6-33.9l-3-8.4V203h-25.8l-2.8-3.8c-4-5.3-17.8-20.6-24.9-27.5-19.6-19.1-45.5-36.1-69.6-45.8-10.8-4.3-21.5-8.1-24.9-8.9-8-1.9-27.9-5.8-33-6.5-9.7-1.3-44-1.2-53 .1z"/></svg>